<svg width="15" height="24" viewBox="0 0 15 24" fill="none" xmlns="http://www.w3.org/2000/svg">
<path d="M5.24829 0C5.04945 0 4.85874 0.0789919 4.71814 0.219599C4.57753 0.360205 4.49854 0.550908 4.49854 0.749756V4.49854H2.24927C1.65273 4.49854 1.08062 4.73551 0.658796 5.15733C0.236976 5.57915 2.65995e-07 6.15126 2.65995e-07 6.74781V20.2434C-0.000226367 20.7096 0.144375 21.1642 0.41381 21.5446C0.683246 21.925 1.0642 22.2123 1.50401 22.3667C1.48849 22.5675 1.51356 22.7693 1.57772 22.9602C1.64188 23.151 1.74382 23.327 1.87747 23.4776C2.01111 23.6282 2.17372 23.7504 2.35559 23.8368C2.53746 23.9232 2.73487 23.9721 2.93604 23.9805C3.13722 23.989 3.33804 23.9568 3.52652 23.886C3.715 23.8152 3.88729 23.7071 4.03311 23.5683C4.17893 23.4294 4.29529 23.2626 4.37526 23.0778C4.45522 22.893 4.49715 22.694 4.49854 22.4927H10.4966C10.4955 22.6956 10.5357 22.8965 10.6145 23.0835C10.6934 23.2704 10.8094 23.4394 10.9555 23.5802C11.1016 23.721 11.2747 23.8306 11.4644 23.9026C11.6541 23.9745 11.8564 24.0072 12.0591 23.9987C12.2618 23.9901 12.4607 23.9406 12.6437 23.8529C12.8267 23.7653 12.99 23.6415 13.1237 23.4889C13.2574 23.3363 13.3588 23.1582 13.4217 22.9653C13.4846 22.7724 13.5077 22.5688 13.4896 22.3667C13.9297 22.2125 14.311 21.9254 14.5807 21.545C14.8504 21.1646 14.9952 20.7097 14.9951 20.2434V6.74781C14.9951 6.15126 14.7581 5.57915 14.3363 5.15733C13.9145 4.73551 13.3424 4.49854 12.7459 4.49854H10.4966V0.749756C10.4966 0.550908 10.4176 0.360205 10.277 0.219599C10.1364 0.0789919 9.94568 0 9.74683 0L5.24829 0ZM8.99707 4.49854H5.99805V1.49951H8.99707V4.49854ZM1.49951 10.4966V8.99707H13.4956V10.4966H1.49951Z" fill="#01493E"/>
</svg>
