<svg width="26" height="24" viewBox="0 0 26 24" fill="none" xmlns="http://www.w3.org/2000/svg">
<path d="M6.93653 13.6232C6.95922 13.6421 10.5723 10.0328 10.5723 9.99244C10.5723 9.95211 4.2119 3.59798 2.62147 2.04411C2.03924 1.477 1.53515 1.01071 1.50616 1.01071C1.40192 1.06742 1.3102 1.14457 1.23647 1.23756C0.808906 1.71096 0.48598 2.26921 0.288771 2.87587C0.214417 3.08885 0.162747 3.26402 0.162747 3.26402C0.156518 3.32693 0.145565 3.38927 0.129981 3.45054C-0.0274595 4.1478 -0.0420354 4.86973 0.0871323 5.57278C0.355563 6.85318 0.751279 7.41273 3.00207 9.6862C3.74561 10.4398 6.80421 13.4934 6.93653 13.6232ZM15.6259 11.5703C15.7216 11.603 15.8081 11.6583 15.8779 11.7316C16.1351 11.9732 16.4381 12.1608 16.769 12.2833C17.0999 12.4058 17.452 12.4606 17.8045 12.4446C18.157 12.4287 18.5027 12.3422 18.8212 12.1902C19.1397 12.0383 19.4244 11.8241 19.6587 11.5602C20.1514 11.1342 20.4009 10.891 22.8093 8.49149L25.2037 6.10208L24.6026 5.49464C24.2749 5.15816 23.9977 4.88973 23.9901 4.89729C23.9825 4.90485 23.0348 5.84499 21.8855 6.99055L19.7948 9.07751L19.1974 8.48771C18.9897 8.28995 18.7896 8.08438 18.5975 7.87146C18.5975 7.86011 19.5339 6.90485 20.6832 5.75551L22.7664 3.66478L22.1791 3.06364C21.9818 2.8568 21.7776 2.65672 21.5667 2.46377C21.5553 2.46377 20.6038 3.40391 19.4545 4.54946L17.3575 6.6402L16.7462 6.03529L16.1338 5.43037L18.2232 3.3409C18.9273 2.64353 19.6242 1.93902 20.314 1.22747C20.314 1.21613 19.5893 0.47133 19.2239 0.119723L19.0978 0L17.8817 1.23882C15.4104 3.7656 14.3127 4.90485 13.6902 5.59924C13.5704 5.73283 13.4583 5.85129 13.4469 5.86011C13.367 5.94563 13.2901 6.0339 13.2163 6.12476C12.9782 6.44102 12.8265 6.8138 12.7761 7.20644C12.7258 7.59909 12.7784 7.99809 12.929 8.36421C13.0639 8.69105 13.2329 9.00279 13.4331 9.29427C13.4482 9.30561 13.5263 9.38752 13.6095 9.47322L13.7582 9.62949L7.49608 15.8967L1.23269 22.1601L2.14384 23.0788L3.05122 24L7.53011 19.5211L12.0052 15.046L16.4551 19.4946C17.9439 20.9885 19.4394 22.4756 20.9416 23.9559C20.9605 23.9635 22.7059 22.242 22.7324 22.1714C22.7399 22.1525 20.7399 20.1298 18.2875 17.6774L13.83 13.2174L14.5207 12.5343C15.4545 11.6081 15.4999 11.5703 15.6259 11.5703Z" fill="#01493E"/>
</svg>
