<svg width="20" height="24" viewBox="0 0 20 24" fill="none" xmlns="http://www.w3.org/2000/svg">
<path d="M4.41733 4.202C3.45758 3.24225 3.45758 1.67957 4.41733 0.719815C5.37708 -0.239938 6.93976 -0.239938 7.89951 0.719815C8.85927 1.67957 8.85927 3.24225 7.89951 4.202C6.92745 5.17406 5.37708 5.17406 4.41733 4.202ZM2.46091 17.2325V6.15842H0V17.2325C0 18.8642 0.648184 20.429 1.80196 21.5828C2.95573 22.7366 4.52059 23.3848 6.15227 23.3848H13.535V20.9239H6.15227C5.17326 20.9239 4.23435 20.535 3.54208 19.8427C2.84982 19.1504 2.46091 18.2115 2.46091 17.2325ZM19.6873 22.2404L13.4489 16.0021H9.2284V11.474C10.951 12.889 13.658 14.1564 15.9959 14.1564V11.474C13.9533 11.4986 11.554 10.4035 10.2497 8.96385L8.52704 7.05665C8.29326 6.77365 7.99795 6.58908 7.67803 6.44143C7.3212 6.26916 6.91515 6.15842 6.4968 6.15842H6.45988C4.92181 6.15842 3.69136 7.38888 3.69136 8.92694V16.0021C3.69136 16.9811 4.08027 17.92 4.77254 18.6122C5.4648 19.3045 6.40371 19.6934 7.38272 19.6934H13.6211L17.9277 24" fill="#01493E"/>
</svg>
